<?xml version="1.0" encoding="UTF-8" ?>
<!DOCTYPE svg PUBLIC "-//W3C//DTD SVG 1.1//EN" "http://www.w3.org/Graphics/SVG/1.1/DTD/svg11.dtd">
<svg width="432pt" height="83pt" viewBox="0 0 432 83" version="1.1" xmlns="http://www.w3.org/2000/svg">
<g id="#000000ff">
<path fill="#000000" opacity="1.00" d=" M 66.63 0.88 C 68.37 0.85 70.12 0.83 71.87 0.79 C 72.06 12.21 72.18 23.64 71.81 35.06 C 74.22 31.54 77.09 28.08 81.13 26.40 C 87.74 23.65 96.27 24.30 101.44 29.60 C 105.41 33.66 107.26 39.38 107.25 44.99 C 107.26 56.25 107.24 67.52 107.25 78.78 C 105.53 78.77 103.80 78.76 102.08 78.76 C 102.21 69.82 101.95 60.89 102.07 51.95 C 101.82 46.47 102.36 40.56 99.47 35.62 C 97.28 31.54 92.66 29.09 88.06 29.35 C 79.31 29.14 72.02 37.47 71.94 45.94 C 72.41 56.86 71.53 67.79 72.14 78.72 C 70.30 78.73 68.46 78.75 66.61 78.78 C 66.64 52.82 66.61 26.85 66.63 0.88 Z" />
<path fill="#000000" opacity="1.00" d=" M 363.34 2.50 C 366.44 1.57 369.72 1.48 372.94 1.48 C 385.96 1.53 398.99 1.48 412.01 1.50 C 416.55 1.52 421.31 2.37 424.98 5.22 C 429.58 8.60 432.02 14.35 431.85 20.00 C 431.86 35.32 431.97 50.64 431.80 65.95 C 431.81 74.93 423.83 82.75 414.90 82.81 C 401.28 83.01 387.65 82.81 374.03 82.90 C 370.04 82.89 365.89 83.10 362.11 81.59 C 356.93 79.63 352.90 75.00 351.63 69.62 C 350.33 63.85 350.96 57.90 350.83 52.05 C 350.94 41.02 350.59 29.99 350.99 18.97 C 351.19 11.61 356.11 4.49 363.34 2.50 M 364.44 5.64 C 360.23 6.84 356.72 10.20 355.26 14.32 C 354.04 17.75 354.20 21.44 354.16 25.02 C 354.23 38.03 354.10 51.03 354.22 64.03 C 354.23 68.88 356.10 73.97 360.21 76.82 C 364.15 79.77 369.31 79.70 374.00 79.76 C 386.00 79.76 398.00 79.79 409.99 79.74 C 414.37 79.70 419.14 79.55 422.77 76.77 C 426.85 73.93 428.71 68.88 428.71 64.04 C 428.80 50.01 428.72 35.99 428.75 21.96 C 428.84 17.27 427.77 12.19 424.15 8.92 C 420.76 5.44 415.66 4.80 411.04 4.75 C 399.37 4.71 387.71 4.77 376.05 4.73 C 372.17 4.74 368.22 4.63 364.44 5.64 Z" />
<path fill="#000000" opacity="1.00" d=" M 19.48 5.51 C 26.57 4.23 33.85 3.72 41.03 4.44 C 46.83 5.22 52.94 7.63 56.27 12.70 C 63.18 23.14 59.63 39.53 47.91 44.91 C 40.74 48.41 32.47 48.27 24.74 47.26 C 24.76 57.76 24.73 68.26 24.76 78.76 C 23.01 78.77 21.25 78.77 19.50 78.78 C 19.48 54.36 19.53 29.94 19.48 5.51 M 24.73 9.46 C 24.76 20.45 24.76 31.45 24.73 42.45 C 33.36 44.21 43.89 44.20 50.43 37.39 C 56.49 30.08 56.09 16.77 47.40 11.62 C 40.57 7.65 32.23 8.27 24.73 9.46 Z" />
<path fill="#000000" opacity="1.00" d=" M 295.28 4.61 C 305.77 4.63 316.26 4.62 326.75 4.62 C 326.76 6.24 326.77 7.87 326.78 9.49 C 317.71 9.51 308.65 9.50 299.58 9.50 C 298.37 17.18 297.23 24.86 295.96 32.53 C 304.42 31.69 313.87 32.49 320.45 38.47 C 331.03 48.14 328.86 67.29 317.29 75.29 C 308.17 81.90 295.22 81.01 285.87 75.34 C 286.60 73.89 287.34 72.44 288.07 70.98 C 293.55 73.91 299.78 76.08 306.06 74.99 C 312.99 73.95 319.09 68.71 320.95 61.93 C 323.00 54.60 321.29 45.71 315.09 40.84 C 308.02 35.66 298.66 36.78 290.48 37.71 C 292.10 26.68 293.65 15.64 295.28 4.61 Z" />
<path fill="#000000" opacity="1.00" d=" M 2.36 6.08 C 5.19 3.98 9.64 6.50 9.42 9.97 C 9.63 13.41 5.16 15.71 2.42 13.74 C -0.20 12.16 -0.18 7.72 2.36 6.08 Z" />
<path fill="#000000" opacity="1.00" d=" M 379.22 22.30 C 387.06 15.41 398.87 14.94 408.12 19.09 C 407.57 20.59 407.01 22.09 406.45 23.59 C 399.04 19.49 388.86 19.39 382.42 25.37 C 373.75 33.61 373.25 49.05 380.99 58.06 C 387.38 65.26 398.44 64.98 406.56 61.11 C 407.01 62.47 407.46 63.83 407.92 65.19 C 400.40 68.42 391.50 69.38 383.84 66.07 C 377.67 63.41 373.32 57.56 371.69 51.14 C 369.10 41.17 371.17 29.28 379.22 22.30 Z" />
<path fill="#000000" opacity="1.00" d=" M 133.29 25.48 C 140.62 23.61 149.06 25.07 154.70 30.30 C 159.99 35.03 162.54 42.12 163.07 49.05 C 163.74 57.67 161.65 67.03 155.33 73.28 C 146.47 82.30 129.83 82.31 121.67 72.34 C 115.14 64.62 114.06 53.67 116.13 44.08 C 118.05 35.46 124.52 27.61 133.29 25.48 M 134.52 29.81 C 125.76 32.25 120.95 41.49 120.56 50.07 C 119.92 58.12 122.35 67.04 129.00 72.12 C 135.08 76.96 144.51 76.42 150.20 71.21 C 156.46 65.78 158.54 56.89 157.66 48.92 C 156.90 42.31 153.99 35.48 148.26 31.73 C 144.28 29.01 139.09 28.76 134.52 29.81 Z" />
<path fill="#000000" opacity="1.00" d=" M 186.14 26.20 C 192.74 23.64 201.15 24.50 206.15 29.86 C 210.07 33.82 211.74 39.49 211.78 44.97 C 211.89 56.23 211.77 67.49 211.84 78.76 C 210.10 78.77 208.36 78.77 206.63 78.78 C 206.59 68.23 206.68 57.68 206.59 47.13 C 206.47 41.93 205.58 36.15 201.52 32.48 C 195.96 27.63 186.79 28.58 181.79 33.81 C 178.29 37.21 176.37 42.11 176.48 46.97 C 176.52 57.57 176.49 68.17 176.51 78.77 C 174.75 78.77 172.99 78.77 171.24 78.77 C 171.01 61.15 171.80 43.49 170.75 25.89 C 172.46 25.86 174.17 25.84 175.89 25.81 C 176.11 29.01 176.00 32.22 175.80 35.43 C 178.39 31.54 181.65 27.85 186.14 26.20 Z" />
<path fill="#000000" opacity="1.00" d=" M 227.35 31.36 C 234.74 23.14 249.70 22.11 257.04 30.91 C 262.18 36.53 263.06 44.57 262.85 51.87 C 250.24 51.69 237.63 51.76 225.03 51.77 C 224.88 59.57 227.24 68.42 234.29 72.73 C 241.83 77.02 251.16 75.55 258.85 72.41 C 259.23 73.81 259.62 75.21 260.00 76.62 C 253.04 79.85 245.05 80.63 237.55 79.17 C 228.94 77.23 222.36 69.72 220.60 61.21 C 218.44 51.01 220.06 39.23 227.35 31.36 M 232.06 33.03 C 227.89 36.69 226.16 42.20 225.25 47.50 C 236.00 47.52 246.76 47.53 257.52 47.49 C 257.13 42.73 256.41 37.60 253.10 33.89 C 248.06 27.65 237.72 27.63 232.06 33.03 Z" />
<path fill="#000000" opacity="1.00" d=" M 2.25 25.87 C 4.00 25.87 5.75 25.87 7.50 25.87 C 7.52 43.50 7.49 61.14 7.51 78.77 C 5.75 78.77 3.99 78.77 2.24 78.77 C 2.27 61.14 2.24 43.50 2.25 25.87 Z" />
</g>
</svg>
